<svg width="20" height="20" viewBox="0 0 20 20" fill="none" xmlns="http://www.w3.org/2000/svg">
<path d="M9.1941 6.80068H10.5299C11.0368 6.78779 11.4743 7.08535 11.4083 7.5889L10.973 10.9033C10.8977 11.4776 11.7601 11.6269 12.047 10.9033C12.2219 10.46 13.0737 10.65 12.8885 11.3411C12.7334 11.9187 11.8643 12.5425 11.3225 12.5425H10.789C9.99277 12.5111 9.30499 11.7982 9.43143 10.9033L9.80432 8.23779L8.99743 7.99735C8.28655 7.80646 8.4301 6.77757 9.1941 6.80068ZM10.6825 3.89446C11.2637 3.89446 11.7345 4.35979 11.7345 4.93268C11.7345 5.50668 11.2637 5.97201 10.6825 5.97201C10.1005 5.97201 9.62943 5.50668 9.62943 4.93268C9.62943 4.35979 10.1005 3.89446 10.6825 3.89446ZM5.59121 1.95312C4.12255 1.95312 3.35632 5.54246 3.35632 10.0009C3.35632 14.4582 4.12232 18.0471 5.59121 18.0471H15.9999C16.8134 18.0471 16.8957 16.5947 16.0172 16.5947H7.84121C6.3261 16.5947 6.3261 14.5356 7.84121 14.5356H15.4117C16.1919 14.5356 16.6248 13.5505 16.6248 12.6409L16.627 3.92113C16.627 2.83068 15.8621 1.95335 14.913 1.95335L5.59121 1.95312Z" fill="#81A8C7"/>
</svg>
