<svg width="23" height="22" viewBox="0 0 23 22" fill="none" xmlns="http://www.w3.org/2000/svg">
<path d="M3.25 9.03276C3.25 8.09411 4.01093 7.33317 4.94959 7.33317V7.33317C5.59335 7.33317 6.18186 6.96945 6.46976 6.39366L7.22222 4.88873C7.27852 4.77612 7.30668 4.71982 7.33581 4.66918C7.67193 4.08491 8.27975 3.70926 8.95265 3.66991C9.01098 3.6665 9.07392 3.6665 9.19982 3.6665H13.8002C13.9261 3.6665 13.989 3.6665 14.0473 3.66991C14.7202 3.70926 15.3281 4.08491 15.6642 4.66918C15.6933 4.71982 15.7215 4.77612 15.7778 4.88873L16.5302 6.39366C16.8181 6.96945 17.4066 7.33317 18.0504 7.33317V7.33317C18.9891 7.33317 19.75 8.0941 19.75 9.03276V13.6189C19.75 15.2182 19.75 16.0179 19.4529 16.6348C19.158 17.2471 18.664 17.7412 18.0517 18.0361C17.4347 18.3332 16.6351 18.3332 15.0357 18.3332H7.96429C6.36494 18.3332 5.56527 18.3332 4.94835 18.0361C4.33603 17.7412 3.84197 17.2471 3.54709 16.6348C3.25 16.0179 3.25 15.2182 3.25 13.6189V9.03276Z" stroke="#222222" stroke-width="1.5"/>
<circle cx="11.4997" cy="11.9167" r="2.91667" stroke="#222222" stroke-width="1.5"/>
</svg>
