<svg width="20" height="20" viewBox="0 0 20 20" fill="none" xmlns="http://www.w3.org/2000/svg">
<path d="M15.3063 2.65645C15.1422 2.3772 14.9086 2.14523 14.6282 1.98312C14.3478 1.82101 14.0302 1.73431 13.7063 1.73145H6.29378C5.96991 1.73431 5.6523 1.82101 5.3719 1.98312C5.0915 2.14523 4.85787 2.3772 4.69378 2.65645L0.98753 9.07519C0.822965 9.36023 0.736328 9.68356 0.736328 10.0127C0.736328 10.3418 0.822965 10.6652 0.98753 10.9502L4.69378 17.3439C4.85787 17.6232 5.0915 17.8552 5.3719 18.0173C5.6523 18.1794 5.96991 18.2661 6.29378 18.2689H13.7063C14.0302 18.2661 14.3478 18.1794 14.6282 18.0173C14.9086 17.8552 15.1422 17.6232 15.3063 17.3439L19.0125 10.9252C19.1771 10.6402 19.2637 10.3168 19.2637 9.98769C19.2637 9.65856 19.1771 9.33523 19.0125 9.05019L15.3063 2.65645ZM13.125 10.0002C13.125 10.6183 12.9418 11.2224 12.5984 11.7364C12.255 12.2503 11.7669 12.6508 11.1959 12.8873C10.6249 13.1238 9.99656 13.1857 9.39037 13.0651C8.78418 12.9446 8.22736 12.6469 7.79032 12.2099C7.35328 11.7729 7.05566 11.216 6.93508 10.6099C6.8145 10.0037 6.87638 9.37533 7.11291 8.80431C7.34943 8.23329 7.74997 7.74523 8.26387 7.40185C8.77778 7.05847 9.38196 6.87519 10 6.87519C10.8288 6.87519 11.6237 7.20443 12.2097 7.79049C12.7958 8.37654 13.125 9.17139 13.125 10.0002Z" fill="#81A8C7"/>
</svg>
