<svg width="20" height="20" viewBox="0 0 20 20" fill="none" xmlns="http://www.w3.org/2000/svg">
<path d="M14.3609 12.7733C14.2223 11.8321 13.751 10.9717 13.0324 10.3482C12.3138 9.72469 11.3956 9.37941 10.4442 9.375H9.55753C8.60616 9.37941 7.68789 9.72469 6.96929 10.3482C6.2507 10.9717 5.77939 11.8321 5.64087 12.7733L5.21587 15.745C5.20229 15.8411 5.21126 15.939 5.24207 16.0309C5.27288 16.1229 5.32468 16.2065 5.39337 16.275C5.56003 16.4417 6.58253 17.2917 10.0017 17.2917C13.4209 17.2917 14.4409 16.445 14.61 16.275C14.6787 16.2065 14.7305 16.1229 14.7613 16.0309C14.7921 15.939 14.8011 15.8411 14.7875 15.745L14.3609 12.7733Z" fill="#81A8C7"/>
<path d="M6.30004 9.83344C5.49465 10.5759 4.97062 11.5739 4.81671 12.6584L4.50837 14.7918C2.03337 14.7751 1.28337 13.8751 1.15837 13.6918C1.11006 13.6252 1.07557 13.5496 1.05697 13.4694C1.03836 13.3893 1.03601 13.3062 1.05004 13.2251L1.23337 12.1918C1.32889 11.6517 1.55322 11.1427 1.88735 10.7078C2.22148 10.2729 2.65554 9.92499 3.15275 9.69357C3.64995 9.46214 4.19563 9.35401 4.74351 9.37836C5.29139 9.40271 5.82533 9.55882 6.30004 9.83344Z" fill="#81A8C7"/>
<path d="M18.95 13.2251C18.964 13.3062 18.9616 13.3893 18.943 13.4694C18.9244 13.5496 18.8899 13.6252 18.8416 13.6918C18.7166 13.8751 17.9666 14.7751 15.4916 14.7918L15.1833 12.6584C15.0294 11.5739 14.5053 10.5759 13.7 9.83344C14.1747 9.55882 14.7086 9.40271 15.2565 9.37836C15.8044 9.35401 16.35 9.46214 16.8472 9.69357C17.3444 9.92499 17.7785 10.2729 18.1126 10.7078C18.4468 11.1427 18.6711 11.6517 18.7666 12.1918L18.95 13.2251Z" fill="#81A8C7"/>
<path d="M6.44163 8C6.23186 8.2975 5.95338 8.53997 5.62985 8.70681C5.30632 8.87365 4.9473 8.95994 4.58329 8.95833C4.22017 8.95833 3.86225 8.87205 3.53902 8.70658C3.2158 8.54111 2.93652 8.30121 2.7242 8.00663C2.51188 7.71205 2.3726 7.37124 2.31784 7.01227C2.26307 6.6533 2.2944 6.28646 2.40923 5.94198C2.52406 5.59749 2.7191 5.28523 2.97829 5.03091C3.23748 4.77659 3.55339 4.58751 3.89999 4.47924C4.24659 4.37097 4.61396 4.34661 4.97183 4.40818C5.32969 4.46974 5.6678 4.61546 5.95829 4.83333C5.87474 5.16008 5.83274 5.49607 5.83329 5.83333C5.83393 6.59762 6.04435 7.34707 6.44163 8Z" fill="#81A8C7"/>
<path d="M17.7083 6.66667C17.7086 6.96768 17.6494 7.26577 17.5344 7.54391C17.4193 7.82205 17.2505 8.07477 17.0376 8.28761C16.8248 8.50045 16.5721 8.66925 16.2939 8.78434C16.0158 8.89943 15.7177 8.95855 15.4167 8.95833C15.0527 8.95994 14.6937 8.87365 14.3701 8.70681C14.0466 8.53997 13.7681 8.2975 13.5583 8C13.9556 7.34708 14.166 6.59762 14.1667 5.83333C14.1672 5.49607 14.1252 5.16009 14.0417 4.83333C14.3822 4.57798 14.787 4.42248 15.2109 4.38426C15.6347 4.34604 16.0609 4.42661 16.4415 4.61694C16.8222 4.80727 17.1423 5.09984 17.3661 5.46187C17.5898 5.8239 17.7083 6.24108 17.7083 6.66667Z" fill="#81A8C7"/>
<path d="M10 8.9585C11.7259 8.9585 13.125 7.55939 13.125 5.8335C13.125 4.10761 11.7259 2.7085 10 2.7085C8.27411 2.7085 6.875 4.10761 6.875 5.8335C6.875 7.55939 8.27411 8.9585 10 8.9585Z" fill="#81A8C7"/>
</svg>
