<svg width="16" height="16" viewBox="0 0 16 16" fill="none" xmlns="http://www.w3.org/2000/svg">
<g clip-path="url(#clip0_669_9035)">
<path d="M8 0C3.58867 0 0 3.58867 0 8C0 12.4113 3.58867 16 8 16C12.4113 16 16 12.4113 16 8C16 3.58867 12.4113 0 8 0ZM8 14.6667C4.324 14.6667 1.33333 11.676 1.33333 8C1.33333 4.324 4.324 1.33333 8 1.33333C11.676 1.33333 14.6667 4.324 14.6667 8C14.6667 11.676 11.676 14.6667 8 14.6667ZM6.66667 6.66667C6.66667 6.91867 6.84733 7.132 7.096 7.17333L9.12333 7.51133C10.018 7.66 10.6667 8.42667 10.6667 9.33333C10.6667 10.436 9.76933 11.3333 8.66667 11.3333V12.6667H7.33333V11.3333C6.23067 11.3333 5.33333 10.436 5.33333 9.33333H6.66667C6.66667 9.70133 6.96533 10 7.33333 10H8.66667C9.03467 10 9.33333 9.70133 9.33333 9.33333C9.33333 9.08133 9.15267 8.868 8.904 8.82667L6.87667 8.48867C5.982 8.34 5.33333 7.57333 5.33333 6.66667C5.33333 5.564 6.23067 4.66667 7.33333 4.66667V3.33333H8.66667V4.66667C9.76933 4.66667 10.6667 5.564 10.6667 6.66667H9.33333C9.33333 6.29933 9.03467 6 8.66667 6H7.33333C6.96533 6 6.66667 6.29933 6.66667 6.66667Z" fill="#7B7A7A"/>
</g>
<defs>
<clipPath id="clip0_669_9035">
<rect width="16" height="16" fill="white"/>
</clipPath>
</defs>
</svg>
