<?xml version="1.0" encoding="UTF-8"?>
<svg version="1.1" xmlns="http://www.w3.org/2000/svg" width="512" height="512">
<path d="M0 0 C1.05127609 -0.00128164 1.05127609 -0.00128164 2.12379009 -0.00258917 C4.47763819 -0.00423931 6.83141539 0.00126981 9.18525696 0.00672913 C10.87040709 0.00701112 12.55555734 0.00685302 14.2407074 0.00628662 C18.8209729 0.00599914 23.40121234 0.01188796 27.98147178 0.01886058 C32.76609907 0.02510227 37.55072693 0.02569856 42.33535767 0.02688599 C51.39820957 0.02999689 60.46104944 0.03820705 69.52389604 0.04823548 C79.84057542 0.05940407 90.15725538 0.06490895 100.4739393 0.06993091 C121.69843797 0.08038985 142.92292581 0.09798465 164.14741516 0.12025452 C163.67304016 1.27525452 163.19866516 2.43025452 162.70991516 3.62025452 C159.72889357 11.66013814 159.99872024 19.81543458 160.00215149 28.28089905 C159.99879288 29.47877548 159.99543427 30.67665192 159.99197388 31.91082764 C159.98413378 35.17772864 159.98079811 38.44459138 159.98015809 41.71150064 C159.97944401 43.75996448 159.97730288 45.80842179 159.97466087 47.856884 C159.96542441 55.02475655 159.96132361 62.19261059 159.96211243 69.36048889 C159.96271185 76.0064469 159.95218229 82.65232339 159.93636876 89.29826081 C159.92321981 95.03193065 159.91793164 100.7655741 159.91856784 106.49925888 C159.91882079 109.91122363 159.91608333 113.32311594 159.90538979 116.73506546 C159.89550844 120.55119179 159.89850021 124.36711262 159.90449524 128.1832428 C159.89887573 129.28918289 159.89325623 130.39512299 159.88746643 131.53457642 C159.95562348 148.74983584 162.69039513 162.87243917 174.14741516 176.12025452 C187.99268886 189.36681368 204.28167561 191.2729525 222.5827179 191.26551819 C223.78570526 191.2688768 224.98869263 191.27223541 226.22813416 191.2756958 C229.49884742 191.28351757 232.7695224 191.28687032 236.04024386 191.28751159 C238.09037018 191.28822653 240.14049001 191.29036913 242.1906147 191.2930088 C249.36152183 191.30223311 256.53241049 191.30634714 263.70332336 191.30555725 C270.35847121 191.30495645 277.01353801 191.31551619 283.66866535 191.33130091 C289.40912262 191.34442489 295.14955354 191.34973916 300.89002568 191.34910184 C304.30689517 191.34884839 307.72369243 191.35161484 311.1405468 191.36227989 C314.95467158 191.37212395 318.76858948 191.36918448 322.5827179 191.36317444 C323.69630173 191.36879395 324.80988556 191.37441345 325.95721436 191.38020325 C334.78944996 191.34500243 342.93629914 190.48273949 351.14741516 187.12025452 C351.23900193 225.04084583 351.30946975 262.96142047 351.35167648 300.88210004 C351.35667921 305.36057359 351.36185651 309.83904692 351.36714172 314.31752014 C351.36819097 315.20909085 351.36924021 316.10066157 351.37032124 317.01924957 C351.38771904 331.44904813 351.41925329 345.87878284 351.45602635 360.30854355 C351.49345316 375.11853037 351.5156547 389.9284838 351.52376914 404.73851597 C351.5292533 413.87463155 351.54656477 423.01056665 351.57908103 432.14662667 C351.60025041 438.41444053 351.60660973 444.68216131 351.60142067 450.95000832 C351.59886264 454.56444649 351.60274046 458.17856964 351.62423706 461.79295158 C351.64740758 465.71758749 351.63934266 469.64181635 351.62843323 473.56651306 C351.64008459 474.70077819 351.65173596 475.83504331 351.6637404 477.00368011 C351.58386762 487.6489026 348.63859796 495.4187964 341.29585266 503.14369202 C334.9361796 508.99459123 328.00454222 512.36520286 319.25209427 512.37752342 C318.08982764 512.38397231 316.927561 512.39042121 315.73007417 512.39706552 C314.46257758 512.39396832 313.19508099 512.39087111 311.88917542 512.38768005 C310.52168774 512.39141827 309.1542022 512.39602047 307.78672004 512.4014107 C304.03423519 512.41363512 300.28183953 512.41338089 296.52933931 512.41102195 C292.48012197 512.41061364 288.43093316 512.42165433 284.38172913 512.43113708 C276.45027854 512.44774526 268.51885769 512.45324656 260.58739117 512.45436184 C254.13929336 512.45531245 247.69120536 512.4594234 241.24311066 512.46576309 C222.95715177 512.48337542 204.67121636 512.49260204 186.38524893 512.49110214 C185.39958605 512.49102223 184.41392317 512.49094232 183.39839172 512.49085999 C181.91808974 512.49073734 181.91808974 512.49073734 180.40788266 512.49061222 C164.41679282 512.48979944 148.4257972 512.50893511 132.43473461 512.53713672 C116.01088943 512.56587274 99.58709018 512.5796766 83.16321921 512.57794917 C73.94422918 512.57728549 64.72533792 512.58276802 55.50637054 512.60430527 C47.65652955 512.62252656 39.80683207 512.62685666 31.95697907 512.61328642 C27.95367126 512.60676139 23.95063871 512.60662254 19.94735718 512.62399292 C16.27813322 512.63974971 12.60940218 512.63683392 8.94019005 512.61942466 C6.99335517 512.61491558 5.04650485 512.62999171 3.09972978 512.64590394 C-8.41928569 512.55555909 -16.2810905 509.58319883 -24.64945984 501.63587952 C-30.59253409 494.84981601 -33.00490613 487.46762037 -32.98680592 478.59505367 C-32.98915815 477.81793621 -32.99151038 477.04081875 -32.99393389 476.24015227 C-33.00063468 473.61455545 -33.00016534 470.98900799 -32.99975586 468.36340332 C-33.00305382 466.47053214 -33.00677924 464.57766167 -33.01089734 462.6847921 C-33.02093331 457.46615128 -33.0246367 452.24752196 -33.02728665 447.02887285 C-33.03118501 441.40699992 -33.04076371 435.78513614 -33.04949951 430.16326904 C-33.06927785 416.57740528 -33.07933216 402.99154076 -33.0882273 389.4056662 C-33.09260822 383.01087193 -33.09797556 376.61607848 -33.10321617 370.22128487 C-33.12023031 348.96829981 -33.13474969 327.7153157 -33.14196491 306.4623251 C-33.14243967 305.08759763 -33.14291556 303.71287016 -33.14339257 302.3381427 C-33.14362895 301.65639904 -33.14386533 300.97465538 -33.14410887 300.27225282 C-33.14531007 296.81818502 -33.14652552 293.36411723 -33.14775085 289.91004944 C-33.147991 289.22457805 -33.14823115 288.53910666 -33.14847858 287.83286341 C-33.1563702 265.61195244 -33.17979842 243.39109488 -33.2123068 221.17020723 C-33.24661198 197.67822944 -33.2663156 174.18629442 -33.26960915 150.69428784 C-33.27177565 137.88815256 -33.28054476 125.08209576 -33.30607033 112.27598381 C-33.32775764 101.37017132 -33.33583744 90.46445635 -33.32610355 79.55862474 C-33.32155309 73.99388157 -33.32348858 68.42933969 -33.34286499 62.86462402 C-33.36045598 57.76865748 -33.35953179 52.67303968 -33.3439677 47.57706965 C-33.34158546 45.73513203 -33.34594705 43.89317051 -33.35779635 42.05126946 C-33.44044214 28.35423333 -32.1233329 18.59533029 -22.36820984 8.32337952 C-15.81557717 2.58473848 -8.6085518 -0.00630663 0 0 Z M148.14741516 205.12025452 C142.96339253 211.70536435 142.99409134 217.55998882 142.9420929 225.59217834 C142.9321933 226.53900482 142.9222937 227.4858313 142.91209412 228.46134949 C142.88056849 231.58330302 142.85575703 234.70527176 142.83100891 237.82728577 C142.81043167 239.99490753 142.78943499 242.16252535 142.76803589 244.33013916 C142.7128948 250.02975771 142.66345041 255.729412 142.6151886 261.42909241 C142.56491541 267.24740268 142.50925972 273.06566118 142.45405579 278.88392639 C142.34657161 290.29599152 142.24510503 301.70810164 142.14741516 313.12025452 C141.17916809 312.136297 141.17916809 312.136297 140.19136047 311.13246155 C137.78752445 308.69448258 135.37920507 306.26111548 132.96772766 303.83070374 C131.92618775 302.77912411 130.88645223 301.72575406 129.84858704 300.67054749 C128.35398362 299.15160666 126.8529481 297.63928388 125.35054016 296.12806702 C123.99944153 294.76125793 123.99944153 294.76125793 122.62104797 293.36683655 C118.0667136 289.23053721 114.63446578 288.66614744 108.61616516 288.80775452 C103.621654 289.43997112 101.02651891 292.14861353 97.77241516 295.74525452 C95.62333525 300.20872817 95.1378254 304.25046861 96.14741516 309.12025452 C98.73124302 313.37085833 101.62042818 316.84562165 105.12788391 320.35951233 C105.85064011 321.08752548 105.85064011 321.08752548 106.58799744 321.83024597 C108.16534646 323.41632264 109.74980834 324.99505879 111.33491516 326.57337952 C112.44092026 327.68073341 113.54662846 328.78838392 114.65205383 329.89631653 C116.96205114 332.20925257 119.27560223 334.51855722 121.5917511 336.82533264 C124.55762202 339.77978303 127.5143873 342.74315821 130.46856689 345.70929337 C132.74691411 347.99487017 135.03000646 350.27565899 137.31455994 352.55503082 C138.40685256 353.64599139 139.49766725 354.73843381 140.58695984 355.83238983 C142.10883112 357.35934728 143.63697884 358.87973545 145.16694641 360.39857483 C146.03424377 361.26428101 146.90154114 362.12998718 147.79512024 363.02192688 C151.44390509 366.27676794 154.15304394 367.41940761 159.02241516 367.49525452 C159.84483704 367.52361389 160.66725891 367.55197327 161.51460266 367.58119202 C167.24409436 366.57810593 171.40033114 362.11882745 175.38667297 358.13978577 C175.87201508 357.6579483 176.35735718 357.17611084 176.85740662 356.67967224 C178.44348328 355.10232322 180.02221944 353.51786133 181.60054016 351.93275452 C182.70789405 350.82674941 183.81554456 349.72104122 184.92347717 348.61561584 C187.23641321 346.30561853 189.54571787 343.99206745 191.85249329 341.67591858 C194.80694367 338.71004766 197.77031885 335.75328238 200.73645401 332.79910278 C203.02203081 330.52075557 205.30281963 328.23766322 207.58219147 325.95310974 C208.67315203 324.86081711 209.76559445 323.77000243 210.85955048 322.68070984 C212.38650793 321.15883856 213.9068961 319.63069084 215.42573547 318.10072327 C216.29144165 317.2334259 217.15714783 316.36612854 218.04908752 315.47254944 C222.06523976 310.97030949 222.59877317 307.49047002 222.45991516 301.58900452 C221.82769856 296.59449336 219.11905615 293.99935827 215.52241516 290.74525452 C211.0589415 288.59617461 207.01720107 288.11066476 202.14741516 289.12025452 C197.99579817 291.64806791 194.59489993 294.43319202 191.18647766 297.88587952 C190.30346985 298.77533264 189.42046204 299.66478577 188.51069641 300.58119202 C187.6070636 301.50158264 186.70343079 302.42197327 185.77241516 303.37025452 C184.84557922 304.30611389 183.91874329 305.24197327 182.96382141 306.20619202 C180.68707909 308.50640591 178.41515345 310.81116896 176.14741516 313.12025452 C176.14154892 311.92501663 176.13568268 310.72977875 176.12963867 309.49832153 C176.07233268 298.21371075 175.99952977 286.92929121 175.91170025 275.64487553 C175.86704432 269.84395815 175.82777752 264.04311023 175.80097961 258.24208069 C175.77489921 252.63984381 175.73446293 247.0378749 175.6842289 241.43580437 C175.66759227 239.30251343 175.6560581 237.16917618 175.64980125 235.03582954 C175.64012542 232.03902975 175.61202409 229.04291061 175.57978821 226.04627991 C175.5812233 225.17161575 175.58265839 224.2969516 175.58413696 223.39578247 C175.49122708 217.25611813 174.95472152 210.27084522 170.69573498 205.4910593 C165.94164177 201.44533448 162.75329931 200.76423441 156.68647766 200.84291077 C152.92281114 201.25401896 150.92951329 202.60311812 148.14741516 205.12025452 Z M67.14741516 406.18275452 C63.72025696 411.21639312 63.48972856 415.09918003 64.14741516 421.12025452 C66.49534174 425.99671742 69.4350237 428.52363065 74.14741516 431.12025452 C78.04598498 432.14144391 81.74280456 432.25042071 85.76234436 432.26069641 C86.73927997 432.26515309 86.73927997 432.26515309 87.73595166 432.26969981 C89.91055423 432.27834663 92.08510148 432.27989164 94.25971985 432.28138733 C95.82219052 432.28601836 97.38466006 432.2910434 98.9471283 432.2964325 C103.1869703 432.30953122 107.42679648 432.31599654 111.66665554 432.32044315 C114.3179311 432.32337801 116.96920237 432.3274836 119.62047577 432.33194733 C127.9226475 432.34561571 136.2248094 432.35528555 144.52699161 432.35914922 C154.09773944 432.36362823 163.66834434 432.38117163 173.23904872 432.41014981 C180.64560129 432.43179389 188.05211371 432.44185496 195.45869756 432.44319034 C199.87829544 432.44423643 204.29775883 432.45010242 208.7173233 432.46800995 C212.87718076 432.48453781 217.0368033 432.48662338 221.19668198 432.47787094 C222.71839148 432.47710308 224.24011386 432.48141003 225.76179123 432.49132919 C238.58098135 432.97338733 238.58098135 432.97338733 249.75432968 427.66827774 C253.84005756 422.9448349 254.50333495 419.71840245 254.42475891 413.65931702 C254.01365072 409.89565049 252.66455156 407.90235264 250.14741516 405.12025452 C244.35482589 400.56013105 239.74432482 399.99824924 232.53248596 399.97981262 C231.88119555 399.9768415 231.22990514 399.97387038 230.55887866 399.97080922 C228.3842761 399.9621624 226.20972884 399.96061739 224.03511047 399.9591217 C222.47263981 399.95449068 220.91017026 399.94946563 219.34770203 399.94407654 C215.10786003 399.93097781 210.86803385 399.9245125 206.62817478 399.92006588 C203.97689922 399.91713102 201.32562795 399.91302543 198.67435455 399.90856171 C190.37218282 399.89489332 182.07002092 399.88522349 173.76783872 399.88135982 C164.19709088 399.8768808 154.62648598 399.85933741 145.0557816 399.83035922 C137.64922904 399.80871514 130.24271661 399.79865408 122.83613276 399.7973187 C118.41653489 399.79627261 113.99707149 399.79040661 109.57750702 399.77249908 C105.41764956 399.75597122 101.25802702 399.75388566 97.09814835 399.76263809 C95.57643884 399.76340595 94.05471646 399.759099 92.53303909 399.74917984 C78.55138175 399.28077597 78.55138175 399.28077597 67.14741516 406.18275452 Z " fill="#000000" transform="translate(96.85258483886719,-0.1202545166015625)"/>
<path d="M0 0 C4.53725451 3.80002069 8.8676997 7.72254929 13.04283142 11.91584778 C13.60825907 12.47971543 14.17368672 13.04358309 14.75624853 13.62453765 C16.63015258 15.4944868 18.50050208 17.36794918 20.37084961 19.24145508 C21.72141196 20.59066103 23.07218666 21.93965446 24.42315674 23.28845215 C28.07578941 26.93654149 31.72527077 30.58776794 35.37404323 34.23971772 C39.19354686 38.06175786 43.01549502 41.88135227 46.83705139 45.70133972 C53.2467641 52.10923584 59.65437101 58.51923198 66.06079102 64.93041992 C73.47704152 72.352126 80.89690647 79.77020392 88.31863207 87.18643457 C94.68998545 93.55325889 101.05939926 99.92201864 107.42717749 106.29241866 C111.23112079 110.09792409 115.035744 113.90274316 118.8421154 117.70582008 C122.41401932 121.27484784 125.98349205 124.84628896 129.55105591 128.41965485 C130.86442126 129.73434858 132.17864965 131.04818077 133.49377632 132.36111259 C135.28017997 134.14480812 137.06351377 135.93151533 138.84605408 137.71907043 C139.37433916 138.24512479 139.90262423 138.77117915 140.44691795 139.31317455 C144 142.88584927 144 142.88584927 144 144 C126.89300058 144.09347956 109.78608097 144.16399686 92.67888451 144.20724869 C84.73554313 144.22786589 76.79236055 144.25597023 68.84912109 144.30175781 C61.92503999 144.34165155 55.00107389 144.36743894 48.07688105 144.37635398 C44.41118991 144.3815645 40.74582776 144.39379306 37.08024216 144.42292023 C32.98612684 144.45518806 28.89258193 144.4559578 24.79833984 144.45410156 C23.58561401 144.46848267 22.37288818 144.48286377 21.12341309 144.49768066 C13.54224476 144.46042475 9.78431956 143.75735292 4.35546875 138.3671875 C1.01080338 134.09406988 -0.12536026 132.12971488 -0.12025452 126.7482605 C-0.12162918 125.63484283 -0.12300385 124.52142517 -0.12442017 123.37426758 C-0.12082489 122.14716064 -0.11722961 120.92005371 -0.11352539 119.65576172 C-0.11367142 118.36799835 -0.11381744 117.08023499 -0.1139679 115.75344849 C-0.11425549 112.21647577 -0.10836483 108.67953678 -0.10139394 105.14257193 C-0.09515415 101.44833133 -0.0945561 97.75409002 -0.09336853 94.05984497 C-0.09025706 87.06170896 -0.08204615 80.06358852 -0.07201904 73.06545937 C-0.06085219 65.09942402 -0.05534601 57.13338794 -0.05032361 49.16734672 C-0.03986339 32.77822202 -0.02226751 16.389113 0 0 Z " fill="#000000" transform="translate(288,16)"/>
</svg>
