<svg width="16" height="16" viewBox="0 0 16 16" fill="none" xmlns="http://www.w3.org/2000/svg">
<g clip-path="url(#clip0_669_9045)">
<path d="M12.4373 0.620374L4.30933 8.74837C3.99889 9.05714 3.75278 9.42441 3.58525 9.82894C3.41772 10.2335 3.33209 10.6672 3.33333 11.105V12.0004C3.33333 12.1772 3.40356 12.3468 3.52859 12.4718C3.65361 12.5968 3.82318 12.667 3.99999 12.667H4.89533C5.33317 12.6683 5.76691 12.5827 6.17143 12.4151C6.57596 12.2476 6.94323 12.0015 7.25199 11.691L15.38 3.56304C15.7696 3.17249 15.9884 2.64336 15.9884 2.09171C15.9884 1.54006 15.7696 1.01093 15.38 0.620374C14.9838 0.241636 14.4568 0.0302734 13.9087 0.0302734C13.3605 0.0302734 12.8335 0.241636 12.4373 0.620374ZM14.4373 2.62037L6.30933 10.7484C5.93341 11.122 5.42533 11.3323 4.89533 11.3337H4.66666V11.105C4.66805 10.575 4.87837 10.067 5.25199 9.69104L13.38 1.56304C13.5224 1.42701 13.7117 1.3511 13.9087 1.3511C14.1056 1.3511 14.2949 1.42701 14.4373 1.56304C14.5773 1.70338 14.6559 1.8935 14.6559 2.09171C14.6559 2.28991 14.5773 2.48003 14.4373 2.62037Z" fill="#7B7A7A"/>
<path d="M15.3333 5.986C15.1565 5.986 14.987 6.05624 14.8619 6.18126C14.7369 6.30629 14.6667 6.47586 14.6667 6.65267V10H12C11.4696 10 10.9609 10.2107 10.5858 10.5858C10.2107 10.9609 10 11.4696 10 12V14.6667H3.33333C2.8029 14.6667 2.29419 14.456 1.91912 14.0809C1.54405 13.7058 1.33333 13.1971 1.33333 12.6667V3.33333C1.33333 2.8029 1.54405 2.29419 1.91912 1.91912C2.29419 1.54405 2.8029 1.33333 3.33333 1.33333H9.36133C9.53815 1.33333 9.70771 1.2631 9.83274 1.13807C9.95776 1.01305 10.028 0.843478 10.028 0.666667C10.028 0.489856 9.95776 0.320286 9.83274 0.195262C9.70771 0.0702379 9.53815 0 9.36133 0L3.33333 0C2.4496 0.00105857 1.60237 0.352588 0.97748 0.97748C0.352588 1.60237 0.00105857 2.4496 0 3.33333L0 12.6667C0.00105857 13.5504 0.352588 14.3976 0.97748 15.0225C1.60237 15.6474 2.4496 15.9989 3.33333 16H10.8953C11.3333 16.0013 11.7671 15.9156 12.1718 15.7481C12.5764 15.5806 12.9438 15.3345 13.2527 15.024L15.0233 13.252C15.3338 12.9432 15.58 12.576 15.7477 12.1715C15.9153 11.767 16.0011 11.3332 16 10.8953V6.65267C16 6.47586 15.9298 6.30629 15.8047 6.18126C15.6797 6.05624 15.5101 5.986 15.3333 5.986ZM12.31 14.0813C12.042 14.3487 11.7031 14.5337 11.3333 14.6147V12C11.3333 11.8232 11.4036 11.6536 11.5286 11.5286C11.6536 11.4036 11.8232 11.3333 12 11.3333H14.6167C14.5342 11.7023 14.3493 12.0406 14.0833 12.3093L12.31 14.0813Z" fill="#7B7A7A"/>
</g>
<defs>
<clipPath id="clip0_669_9045">
<rect width="16" height="16" fill="white"/>
</clipPath>
</defs>
</svg>
