<svg width="24" height="24" viewBox="0 0 24 24" fill="none" xmlns="http://www.w3.org/2000/svg">
<path d="M5.70586 5.94128H4.47057C3.81534 5.94128 3.18694 6.20157 2.72361 6.66489C2.26029 7.12821 2 7.75661 2 8.41185V19.5294C2 20.1847 2.26029 20.8131 2.72361 21.2764C3.18694 21.7397 3.81534 22 4.47057 22H15.5881C16.2434 22 16.8718 21.7397 17.3351 21.2764C17.7984 20.8131 18.0587 20.1847 18.0587 19.5294V18.2941M16.8234 3.4707L20.5293 7.17656M22.2402 5.42863C22.7267 4.94212 23 4.28227 23 3.59423C23 2.9062 22.7267 2.24635 22.2402 1.75983C21.7537 1.27332 21.0938 1 20.4058 1C19.7177 1 19.0579 1.27332 18.5714 1.75983L8.17643 12.1177V15.8236H11.8823L22.2402 5.42863Z" stroke="#81A8C7" stroke-width="1.5" stroke-linecap="round" stroke-linejoin="round"/>
</svg>
