<svg width="87" height="87" viewBox="0 0 87 87" fill="none" xmlns="http://www.w3.org/2000/svg">
<g clip-path="url(#clip0_669_11586)">
<path d="M21.6485 80.7833C20.8561 80.7831 20.0857 80.5232 19.455 80.0435C18.8244 79.5638 18.3682 78.8906 18.1565 78.1271C17.9447 77.3635 17.989 76.5516 18.2825 75.8156C18.576 75.0796 19.1026 74.46 19.7816 74.0517C32.625 66.3377 32.625 49.7714 32.625 39.8752C32.625 36.991 33.7708 34.2249 35.8102 32.1854C37.8497 30.1459 40.6158 29.0002 43.5 29.0002C46.3842 29.0002 49.1503 30.1459 51.1898 32.1854C53.2292 34.2249 54.375 36.991 54.375 39.8752C54.375 40.8366 53.9931 41.7586 53.3133 42.4384C52.6334 43.1183 51.7114 43.5002 50.75 43.5002C49.7886 43.5002 48.8666 43.1183 48.1867 42.4384C47.5069 41.7586 47.125 40.8366 47.125 39.8752C47.125 38.9138 46.7431 37.9917 46.0633 37.3119C45.3834 36.6321 44.4614 36.2502 43.5 36.2502C42.5386 36.2502 41.6166 36.6321 40.9367 37.3119C40.2569 37.9917 39.875 38.9138 39.875 39.8752C39.875 50.5581 39.875 70.4484 23.5118 80.2686C22.9487 80.6056 22.3047 80.7835 21.6485 80.7833ZM39.6394 85.9344C47.9116 77.5969 52.7437 65.8737 53.998 51.0583C54.0403 50.5831 53.9883 50.1041 53.8451 49.649C53.7019 49.1939 53.4703 48.7715 53.1634 48.4061C52.8566 48.0407 52.4807 47.7394 52.0572 47.5196C51.6337 47.2998 51.171 47.1658 50.6956 47.1252C50.2199 47.0764 49.7393 47.1239 49.2823 47.2647C48.8254 47.4056 48.4015 47.637 48.0358 47.9452C47.6702 48.2533 47.3703 48.6319 47.154 49.0584C46.9377 49.4848 46.8095 49.9505 46.777 50.4276C45.6496 63.6842 41.6331 73.6276 34.4955 80.8087C33.8177 81.4908 33.4386 82.4142 33.4417 83.3758C33.4448 84.3374 33.8297 85.2585 34.5118 85.9362C35.1939 86.614 36.1174 86.9931 37.079 86.99C38.0406 86.987 38.9616 86.6021 39.6394 85.9199V85.9344ZM58.4894 85.2602C60.6882 81.6066 62.5194 77.744 63.9559 73.7291C64.2562 72.8311 64.1932 71.8513 63.7805 70.9992C63.3678 70.147 62.638 69.4902 61.7472 69.1691C60.8565 68.848 59.8755 68.8882 59.014 69.2811C58.1525 69.6739 57.4789 70.3883 57.1372 71.2713C55.8609 74.8313 54.2363 78.2566 52.287 81.4974C52.0399 81.9047 51.8755 82.3566 51.8031 82.8274C51.7307 83.2982 51.7517 83.7787 51.865 84.2413C51.9783 84.704 52.1815 85.1399 52.4632 85.524C52.745 85.9081 53.0996 86.2329 53.5068 86.48C54.3293 86.979 55.3163 87.1308 56.2507 86.902C56.7134 86.7887 57.1492 86.5855 57.5333 86.3037C57.9174 86.022 58.2423 85.6674 58.4894 85.2602ZM67.0625 62.3176C68.4055 54.9149 69.0126 47.3975 68.875 39.8752C68.8716 34.7396 67.31 29.726 64.3965 25.4968C61.4831 21.2677 57.3551 18.022 52.5578 16.1889C47.7606 14.3557 42.5201 14.0212 37.5287 15.2297C32.5374 16.4382 28.0303 19.1328 24.6029 22.9573C24.2691 23.3089 24.0092 23.724 23.8387 24.1778C23.6681 24.6317 23.5903 25.1151 23.6099 25.5996C23.6295 26.084 23.7461 26.5596 23.9528 26.9982C24.1594 27.4367 24.452 27.8294 24.8131 28.1529C25.1742 28.4765 25.5965 28.7243 26.0551 28.8817C26.5137 29.0391 26.9992 29.1029 27.4829 29.0693C27.9665 29.0358 28.4386 28.9055 28.871 28.6863C29.3034 28.4671 29.6875 28.1633 30.0005 27.7931C32.4484 25.0608 35.6677 23.1357 39.233 22.2721C42.7984 21.4085 46.5418 21.647 49.9686 22.9562C53.3955 24.2655 56.3444 26.5837 58.4256 29.6046C60.5069 32.6255 61.6225 36.2068 61.625 39.8752C61.7587 46.9323 61.1978 53.9855 59.9503 60.9328C59.7672 61.8759 59.966 62.8531 60.503 63.6497C61.0399 64.4463 61.8711 64.9972 62.814 65.1813C63.0444 65.2274 63.2787 65.2504 63.5136 65.2502C64.3533 65.248 65.1661 64.9544 65.8134 64.4196C66.4606 63.8847 66.9021 63.1418 67.0625 62.3176ZM25.375 39.8752C25.374 38.8634 25.4576 37.8534 25.6251 36.8556C25.7334 36.3752 25.7426 35.8778 25.6523 35.3938C25.562 34.9098 25.374 34.4492 25.0998 34.0402C24.8256 33.6312 24.471 33.2823 24.0575 33.0149C23.6441 32.7475 23.1805 32.5671 22.695 32.4847C22.2096 32.4024 21.7124 32.4198 21.2339 32.5359C20.7554 32.6521 20.3056 32.8645 19.9119 33.1602C19.5181 33.4559 19.1888 33.8287 18.9439 34.2559C18.699 34.683 18.5437 35.1556 18.4875 35.6448C18.2482 37.0423 18.1269 38.4574 18.125 39.8752C18.125 56.7133 13.2458 65.2502 3.625 65.2502C2.66359 65.2502 1.74156 65.6321 1.06174 66.3119C0.381919 66.9917 0 67.9138 0 68.8752C0 69.8366 0.381919 70.7586 1.06174 71.4385C1.74156 72.1183 2.66359 72.5002 3.625 72.5002C17.6501 72.5002 25.375 60.9002 25.375 39.8752ZM75.0375 84.8759C81.0031 70.6446 83.8463 55.2991 83.375 39.8752C83.3917 33.8538 82.0276 27.9087 79.3875 22.4969C79.1792 22.0685 78.8886 21.6853 78.5322 21.3692C78.1759 21.053 77.7607 20.8102 77.3105 20.6545C76.8603 20.4988 76.3838 20.4333 75.9083 20.4618C75.4328 20.4903 74.9675 20.6121 74.5391 20.8204C74.1106 21.0286 73.7274 21.3193 73.4113 21.6756C73.0952 22.032 72.8523 22.4471 72.6966 22.8974C72.541 23.3476 72.4755 23.8241 72.5039 24.2996C72.5324 24.7751 72.6542 25.2404 72.8625 25.6688C75.0195 30.0934 76.1355 34.9529 76.125 39.8752C76.5813 54.262 73.9626 68.5805 68.4436 81.8744C68.2471 82.3085 68.1381 82.7771 68.1229 83.2534C68.1077 83.7296 68.1865 84.2042 68.3548 84.65C68.5232 85.0957 68.7777 85.5039 69.104 85.8512C69.4302 86.1985 69.8217 86.4781 70.2561 86.6739C70.7256 86.8899 71.2365 87.0012 71.7533 87.0002C72.4465 86.9972 73.1244 86.7955 73.7065 86.419C74.2886 86.0425 74.7505 85.507 75.0375 84.8759ZM10.875 50.7502V39.8752C10.8846 31.2254 14.3249 22.9327 20.4412 16.8164C26.5575 10.7001 34.8503 7.25978 43.5 7.25019C50.5629 7.22666 57.4388 9.51864 63.075 13.7752C63.8441 14.352 64.8109 14.5997 65.7627 14.4638C66.7144 14.3278 67.5732 13.8193 68.15 13.0502C68.7268 12.2811 68.9745 11.3143 68.8386 10.3625C68.7026 9.41079 68.1941 8.55203 67.425 7.97518C60.5352 2.77484 52.132 -0.0262262 43.5 0.000185072C32.9283 0.0126568 22.7932 4.21776 15.3179 11.6931C7.84258 19.1684 3.63747 29.3035 3.625 39.8752V50.7502C3.625 51.7116 4.00692 52.6336 4.68674 53.3134C5.36656 53.9933 6.28859 54.3752 7.25 54.3752C8.21141 54.3752 9.13344 53.9933 9.81326 53.3134C10.4931 52.6336 10.875 51.7116 10.875 50.7502Z" fill="#81A8C7"/>
</g>
<defs>
<clipPath id="clip0_669_11586">
<rect width="87" height="87" fill="white"/>
</clipPath>
</defs>
</svg>
