<svg width="24" height="24" viewBox="0 0 24 24" fill="none" xmlns="http://www.w3.org/2000/svg">
<path fill-rule="evenodd" clip-rule="evenodd" d="M10.4174 3.54689L3.95347 8.61072C3.21559 9.18877 3.01061 10.0491 3.00034 11.0435C2.99979 11.0974 3.00154 11.1495 3.00561 11.2033C3.04743 11.7548 3.33656 15.1249 4.40504 18.9084C4.78263 19.9615 5.67103 21 6.89328 21H17.1066C18.3288 21 19.2173 19.9615 19.5948 18.9084C20.6633 15.1249 20.9524 11.7548 20.9943 11.2033C20.9983 11.1495 21.0001 11.0974 20.9995 11.0435C20.9892 10.0491 20.7843 9.18877 20.0464 8.61072L13.5824 3.54689C12.6516 2.8177 11.3482 2.8177 10.4174 3.54689ZM14.9999 13.75C14.9999 15.4069 13.6568 16.75 11.9999 16.75C10.3431 16.75 8.99994 15.4069 8.99994 13.75C8.99994 12.0931 10.3431 10.75 11.9999 10.75C13.6568 10.75 14.9999 12.0931 14.9999 13.75Z" fill="white"/>
</svg>
