<svg width="50" height="50" viewBox="0 0 50 50" fill="none" xmlns="http://www.w3.org/2000/svg">
<rect width="50" height="50" rx="25" fill="#FAF5FC"/>
<path d="M20.5752 25.1198C20.5752 22.6066 22.6131 20.5687 25.1278 20.5687C27.6425 20.5687 29.6816 22.6066 29.6816 25.1198C29.6816 27.6329 27.6425 29.6708 25.1278 29.6708C22.6131 29.6708 20.5752 27.6329 20.5752 25.1198ZM18.1135 25.1198C18.1135 28.9915 21.2538 32.1299 25.1278 32.1299C29.0018 32.1299 32.1422 28.9915 32.1422 25.1198C32.1422 21.2481 29.0018 18.1096 25.1278 18.1096C21.2538 18.1096 18.1135 21.2481 18.1135 25.1198ZM30.7806 17.8317C30.7805 18.1557 30.8765 18.4725 31.0565 18.7419C31.2365 19.0114 31.4925 19.2215 31.7919 19.3456C32.0914 19.4697 32.421 19.5023 32.739 19.4392C33.057 19.3761 33.3491 19.2202 33.5785 18.9912C33.8078 18.7622 33.9641 18.4703 34.0274 18.1526C34.0908 17.8348 34.0585 17.5054 33.9345 17.206C33.8106 16.9066 33.6006 16.6507 33.3311 16.4705C33.0616 16.2904 32.7447 16.1942 32.4205 16.1941H32.4198C31.9853 16.1943 31.5685 16.3669 31.2612 16.6739C30.9538 16.981 30.781 17.3974 30.7806 17.8317ZM19.6091 36.2321C18.2773 36.1715 17.5534 35.9498 17.0724 35.7625C16.4346 35.5144 15.9796 35.2188 15.5011 34.7413C15.0227 34.2639 14.7265 33.8095 14.4793 33.1721C14.2918 32.6916 14.07 31.9679 14.0094 30.6369C13.9432 29.1979 13.93 28.7656 13.93 25.1199C13.93 21.4741 13.9443 21.0431 14.0094 19.6028C14.0701 18.2718 14.2936 17.5496 14.4793 17.0676C14.7276 16.4302 15.0233 15.9754 15.5011 15.4973C15.9789 15.0191 16.4335 14.7232 17.0724 14.4761C17.5532 14.2887 18.2773 14.067 19.6091 14.0065C21.049 13.9403 21.4815 13.9271 25.1278 13.9271C28.7741 13.9271 29.2071 13.9414 30.6482 14.0065C31.98 14.0671 32.7027 14.2905 33.1849 14.4761C33.8227 14.7232 34.2777 15.0198 34.7562 15.4973C35.2346 15.9748 35.5297 16.4302 35.7779 17.0676C35.9655 17.5481 36.1873 18.2718 36.2479 19.6028C36.3141 21.0431 36.3273 21.4741 36.3273 25.1199C36.3273 28.7656 36.3141 29.1967 36.2479 30.6369C36.1872 31.9679 35.9643 32.6914 35.7779 33.1721C35.5297 33.8095 35.2339 34.2643 34.7562 34.7413C34.2784 35.2184 33.8227 35.5144 33.1849 35.7625C32.7041 35.9499 31.98 36.1716 30.6482 36.2321C29.2083 36.2983 28.7757 36.3115 25.1278 36.3115C21.4799 36.3115 21.0486 36.2983 19.6091 36.2321ZM19.496 11.5504C18.0418 11.6166 17.0481 11.8471 16.1803 12.1846C15.2816 12.5331 14.5208 13.0006 13.7605 13.7592C13.0002 14.5178 12.5336 15.2794 12.1849 16.1776C11.8472 17.0454 11.6166 18.038 11.5504 19.4913C11.4831 20.9469 11.4677 21.4123 11.4677 25.1198C11.4677 28.8272 11.4831 29.2926 11.5504 30.7482C11.6166 32.2016 11.8472 33.1941 12.1849 34.0619C12.5336 34.9596 13.0003 35.722 13.7605 36.4803C14.5206 37.2386 15.2816 37.7055 16.1803 38.055C17.0497 38.3924 18.0418 38.6229 19.496 38.6891C20.9533 38.7552 21.4182 38.7717 25.1278 38.7717C28.8375 38.7717 29.3031 38.7563 30.7596 38.6891C32.214 38.6229 33.207 38.3924 34.0753 38.055C34.9735 37.7055 35.7349 37.2389 36.4952 36.4803C37.2554 35.7217 37.7211 34.9596 38.0708 34.0619C38.4085 33.1941 38.6401 32.2015 38.7053 30.7482C38.7715 29.2915 38.7869 28.8272 38.7869 25.1198C38.7869 21.4123 38.7715 20.9469 38.7053 19.4913C38.639 18.0379 38.4085 17.0449 38.0708 16.1776C37.7211 15.28 37.2542 14.519 36.4952 13.7592C35.7361 12.9994 34.9735 12.5331 34.0764 12.1846C33.207 11.8471 32.2138 11.6155 30.7607 11.5504C29.3042 11.4843 28.8386 11.4678 25.1289 11.4678C21.4193 11.4678 20.9533 11.4832 19.496 11.5504Z" fill="url(#paint0_radial_669_10343)"/>
<path d="M20.5752 25.1198C20.5752 22.6066 22.6131 20.5687 25.1278 20.5687C27.6425 20.5687 29.6816 22.6066 29.6816 25.1198C29.6816 27.6329 27.6425 29.6708 25.1278 29.6708C22.6131 29.6708 20.5752 27.6329 20.5752 25.1198ZM18.1135 25.1198C18.1135 28.9915 21.2538 32.1299 25.1278 32.1299C29.0018 32.1299 32.1422 28.9915 32.1422 25.1198C32.1422 21.2481 29.0018 18.1096 25.1278 18.1096C21.2538 18.1096 18.1135 21.2481 18.1135 25.1198ZM30.7806 17.8317C30.7805 18.1557 30.8765 18.4725 31.0565 18.7419C31.2365 19.0114 31.4925 19.2215 31.7919 19.3456C32.0914 19.4697 32.421 19.5023 32.739 19.4392C33.057 19.3761 33.3491 19.2202 33.5785 18.9912C33.8078 18.7622 33.9641 18.4703 34.0274 18.1526C34.0908 17.8348 34.0585 17.5054 33.9345 17.206C33.8106 16.9066 33.6006 16.6507 33.3311 16.4705C33.0616 16.2904 32.7447 16.1942 32.4205 16.1941H32.4198C31.9853 16.1943 31.5685 16.3669 31.2612 16.6739C30.9538 16.981 30.781 17.3974 30.7806 17.8317ZM19.6091 36.2321C18.2773 36.1715 17.5534 35.9498 17.0724 35.7625C16.4346 35.5144 15.9796 35.2188 15.5011 34.7413C15.0227 34.2639 14.7265 33.8095 14.4793 33.1721C14.2918 32.6916 14.07 31.9679 14.0094 30.6369C13.9432 29.1979 13.93 28.7656 13.93 25.1199C13.93 21.4741 13.9443 21.0431 14.0094 19.6028C14.0701 18.2718 14.2936 17.5496 14.4793 17.0676C14.7276 16.4302 15.0233 15.9754 15.5011 15.4973C15.9789 15.0191 16.4335 14.7232 17.0724 14.4761C17.5532 14.2887 18.2773 14.067 19.6091 14.0065C21.049 13.9403 21.4815 13.9271 25.1278 13.9271C28.7741 13.9271 29.2071 13.9414 30.6482 14.0065C31.98 14.0671 32.7027 14.2905 33.1849 14.4761C33.8227 14.7232 34.2777 15.0198 34.7562 15.4973C35.2346 15.9748 35.5297 16.4302 35.7779 17.0676C35.9655 17.5481 36.1873 18.2718 36.2479 19.6028C36.3141 21.0431 36.3273 21.4741 36.3273 25.1199C36.3273 28.7656 36.3141 29.1967 36.2479 30.6369C36.1872 31.9679 35.9643 32.6914 35.7779 33.1721C35.5297 33.8095 35.2339 34.2643 34.7562 34.7413C34.2784 35.2184 33.8227 35.5144 33.1849 35.7625C32.7041 35.9499 31.98 36.1716 30.6482 36.2321C29.2083 36.2983 28.7757 36.3115 25.1278 36.3115C21.4799 36.3115 21.0486 36.2983 19.6091 36.2321ZM19.496 11.5504C18.0418 11.6166 17.0481 11.8471 16.1803 12.1846C15.2816 12.5331 14.5208 13.0006 13.7605 13.7592C13.0002 14.5178 12.5336 15.2794 12.1849 16.1776C11.8472 17.0454 11.6166 18.038 11.5504 19.4913C11.4831 20.9469 11.4677 21.4123 11.4677 25.1198C11.4677 28.8272 11.4831 29.2926 11.5504 30.7482C11.6166 32.2016 11.8472 33.1941 12.1849 34.0619C12.5336 34.9596 13.0003 35.722 13.7605 36.4803C14.5206 37.2386 15.2816 37.7055 16.1803 38.055C17.0497 38.3924 18.0418 38.6229 19.496 38.6891C20.9533 38.7552 21.4182 38.7717 25.1278 38.7717C28.8375 38.7717 29.3031 38.7563 30.7596 38.6891C32.214 38.6229 33.207 38.3924 34.0753 38.055C34.9735 37.7055 35.7349 37.2389 36.4952 36.4803C37.2554 35.7217 37.7211 34.9596 38.0708 34.0619C38.4085 33.1941 38.6401 32.2015 38.7053 30.7482C38.7715 29.2915 38.7869 28.8272 38.7869 25.1198C38.7869 21.4123 38.7715 20.9469 38.7053 19.4913C38.639 18.0379 38.4085 17.0449 38.0708 16.1776C37.7211 15.28 37.2542 14.519 36.4952 13.7592C35.7361 12.9994 34.9735 12.5331 34.0764 12.1846C33.207 11.8471 32.2138 11.6155 30.7607 11.5504C29.3042 11.4843 28.8386 11.4678 25.1289 11.4678C21.4193 11.4678 20.9533 11.4832 19.496 11.5504Z" fill="url(#paint1_radial_669_10343)"/>
<defs>
<radialGradient id="paint0_radial_669_10343" cx="0" cy="0" r="1" gradientUnits="userSpaceOnUse" gradientTransform="translate(15.0973 38.9007) scale(35.6644 35.643)">
<stop offset="0.09" stop-color="#FA8F21"/>
<stop offset="0.78" stop-color="#D82D7E"/>
</radialGradient>
<radialGradient id="paint1_radial_669_10343" cx="0" cy="0" r="1" gradientUnits="userSpaceOnUse" gradientTransform="translate(28.0362 40.1239) scale(28.1085 28.0916)">
<stop offset="0.64" stop-color="#8C3AAA" stop-opacity="0"/>
<stop offset="1" stop-color="#8C3AAA"/>
</radialGradient>
</defs>
</svg>
