<svg width="16" height="15" viewBox="0 0 16 15" fill="none" xmlns="http://www.w3.org/2000/svg">
<g clip-path="url(#clip0_1344_8536)">
<path d="M9.11262 14.8306C8.99359 14.7128 8.93378 14.5569 8.93378 14.4016C8.93378 14.2475 8.99238 14.0941 9.10899 13.9762L10.4848 12.589L4.32073 12.589C2.32144 12.589 0.695539 10.9631 0.695539 8.96381L0.695539 4.73442C0.695539 4.4003 0.965615 4.13023 1.29974 4.13023C1.63386 4.13023 1.90393 4.4003 1.90393 4.73442L1.90393 8.96381C1.90393 10.2967 2.98786 11.3806 4.32073 11.3806L10.4848 11.3806L9.10899 9.99336C8.87517 9.75591 8.87517 9.37406 9.11262 9.13903C9.34947 8.90399 9.73192 8.9052 9.96696 9.14265L11.7397 10.9299C12.301 11.4918 12.3022 12.4772 11.7385 13.0409L9.96756 14.8269C9.73253 15.0644 9.35007 15.0656 9.11322 14.8306L9.11262 14.8306ZM5.92548 6.36817C6.16051 6.60562 6.54297 6.60683 6.77981 6.3718C7.01787 6.13556 7.01847 5.75431 6.78344 5.51746L5.40768 4.13023L11.5711 4.13023C12.904 4.13023 13.9879 5.21416 13.9879 6.54702L13.9879 10.7764C13.9879 11.1105 14.2586 11.3806 14.5921 11.3806C14.9256 11.3806 15.1963 11.1105 15.1963 10.7764L15.1963 6.54702C15.1963 4.54773 13.5704 2.92183 11.5711 2.92183L5.40707 2.92183L6.78283 1.53459C7.01726 1.29775 7.01666 0.915893 6.77921 0.680256C6.54236 0.445223 6.1599 0.446431 5.92487 0.683881L4.15397 2.46929C3.8712 2.75145 3.71592 3.12665 3.71592 3.52603C3.71592 3.9254 3.8712 4.30061 4.15216 4.58096L5.92487 6.36817L5.92548 6.36817Z" fill="#102030"/>
</g>
<defs>
<clipPath id="clip0_1344_8536">
<rect width="14.5007" height="14.5007" fill="white" transform="translate(15.1963 0.505371) rotate(90)"/>
</clipPath>
</defs>
</svg>
