<svg width="16" height="16" viewBox="0 0 16 16" fill="none" xmlns="http://www.w3.org/2000/svg">
<g clip-path="url(#clip0_669_9027)">
<path d="M14.7879 0H5.09092C3.35313 0 1.93941 1.41377 1.93941 3.15152V3.87879H1.21214C0.810488 3.87879 0.484863 4.20441 0.484863 4.60606C0.484863 5.00771 0.810488 5.33333 1.21214 5.33333H1.93941V7.27273H1.21214C0.810488 7.27273 0.484863 7.59835 0.484863 8C0.484863 8.40165 0.810488 8.72727 1.21214 8.72727H1.93941V10.6667H1.21214C0.810488 10.6667 0.484863 10.9923 0.484863 11.3939C0.484863 11.7956 0.810488 12.1212 1.21214 12.1212H1.93941V12.8485C1.93941 14.5862 3.35313 16 5.09092 16H14.7879C15.1895 16 15.5152 15.6744 15.5152 15.2727V0.727273C15.5152 0.325624 15.1895 0 14.7879 0ZM12.3152 8.78793C12.3152 9.46298 11.7659 10.0122 11.0908 10.0122C10.6742 10.0122 10.3057 9.80281 10.0845 9.48393C9.72642 9.81178 9.24981 10.0122 8.72729 10.0122C7.61781 10.0122 6.71517 9.10948 6.71517 7.9999C6.71517 6.89042 7.61781 5.98783 8.72729 5.98783C9.83677 5.98783 10.7393 6.89042 10.7393 7.9999V8.78793C10.7393 8.98172 10.897 9.13944 11.0908 9.13944C11.2847 9.13944 11.4424 8.98172 11.4424 8.78793V7.9999C11.4424 6.50284 10.2245 5.28485 8.72729 5.28485C7.23012 5.28485 6.01214 6.50284 6.01214 7.9999C6.01214 9.49707 7.23012 10.7152 8.72729 10.7152C8.96831 10.7152 9.16365 10.9105 9.16365 11.1515C9.16365 11.3925 8.96831 11.5879 8.72729 11.5879C6.74891 11.5879 5.13941 9.97833 5.13941 7.9999C5.13941 6.02158 6.74891 4.41212 8.72729 4.41212C10.7057 4.41212 12.3152 6.02158 12.3152 7.9999V8.78793Z" fill="black"/>
<path d="M8.72728 6.86035C8.09902 6.86035 7.58789 7.37148 7.58789 7.9997C7.58789 8.62806 8.09902 9.13924 8.72728 9.13924C9.3555 9.13924 9.86658 8.62801 9.86658 7.9997C9.86658 7.37143 9.3555 6.86035 8.72728 6.86035Z" fill="black"/>
</g>
<defs>
<clipPath id="clip0_669_9027">
<rect width="16" height="16" fill="white"/>
</clipPath>
</defs>
</svg>
