<svg width="85" height="84" viewBox="0 0 85 84" fill="none" xmlns="http://www.w3.org/2000/svg">
<g opacity="0.2">
<path d="M11 42C11 24.603 25.103 10.5 42.5 10.5C59.897 10.5 74 24.603 74 42C74 59.397 59.897 73.5 42.5 73.5C25.103 73.5 11 59.397 11 42Z" fill="#7E869E" fill-opacity="0.25"/>
<circle cx="42.5" cy="35" r="14" fill="#222222"/>
<path fill-rule="evenodd" clip-rule="evenodd" d="M66.4321 68.9801C66.4563 69.0746 66.4223 69.1747 66.3456 69.2349C65.2305 70.1098 64.019 70.8689 62.7282 71.495C58.5944 73.5 53.2296 73.5 42.5 73.5C31.7704 73.5 26.4056 73.5 22.2718 71.495C20.9816 70.8692 19.7707 70.1106 18.6561 69.2362C18.5793 69.176 18.5453 69.0759 18.5695 68.9814C20.981 59.5552 30.7798 52.5 42.501 52.5C54.2216 52.5 64.02 59.5545 66.4321 68.9801Z" fill="#222222"/>
</g>
</svg>
