<svg width="20" height="20" viewBox="0 0 20 20" fill="none" xmlns="http://www.w3.org/2000/svg">
<path d="M18.3334 5.83357H17.4117C17.4745 5.56034 17.5041 5.28055 17.5 5.00024C17.5354 4.5535 17.4735 4.1044 17.3185 3.68392C17.1635 3.26344 16.9191 2.88159 16.6022 2.56471C16.2854 2.24783 15.9035 2.00346 15.483 1.84846C15.0625 1.69346 14.6134 1.63151 14.1667 1.6669C12.3634 1.6669 10.8592 3.5594 10 4.94024C9.14087 3.5594 7.63671 1.6669 5.83337 1.6669C5.38664 1.63151 4.93754 1.69346 4.51706 1.84846C4.09658 2.00346 3.71473 2.24783 3.39785 2.56471C3.08096 2.88159 2.83659 3.26344 2.68159 3.68392C2.52659 4.1044 2.46465 4.5535 2.50004 5.00024C2.49594 5.28055 2.5256 5.56034 2.58837 5.83357H1.66671C1.44569 5.83357 1.23373 5.92137 1.07745 6.07765C0.921171 6.23393 0.833374 6.44589 0.833374 6.6669V10.8336C0.833374 11.0546 0.921171 11.2665 1.07745 11.4228C1.23373 11.5791 1.44569 11.6669 1.66671 11.6669H2.50004V17.5002C2.50004 17.7213 2.58784 17.9332 2.74412 18.0895C2.9004 18.2458 3.11236 18.3336 3.33337 18.3336H16.6667C16.8877 18.3336 17.0997 18.2458 17.256 18.0895C17.4122 17.9332 17.5 17.7213 17.5 17.5002V11.6669H18.3334C18.5544 11.6669 18.7664 11.5791 18.9226 11.4228C19.0789 11.2665 19.1667 11.0546 19.1667 10.8336V6.6669C19.1667 6.44589 19.0789 6.23393 18.9226 6.07765C18.7664 5.92137 18.5544 5.83357 18.3334 5.83357ZM5.83337 3.33357C6.76087 3.33357 7.84921 4.65274 8.59004 5.83357H6.29671C4.16671 5.83357 4.16671 5.50024 4.16671 5.00024C4.16671 3.50607 5.11837 3.33357 5.83337 3.33357ZM9.16671 16.6669H4.16671V11.6669H9.16671V16.6669ZM9.16671 10.0002H2.50004V7.50024H9.16671V10.0002ZM14.1667 3.33357C14.8817 3.33357 15.8334 3.50607 15.8334 5.00024C15.8334 5.50024 15.8334 5.83357 13.7034 5.83357H11.41C12.1509 4.65274 13.2392 3.33357 14.1667 3.33357ZM15.8334 16.6669H10.8334V11.6669H15.8334V16.6669ZM17.5 10.0002H10.8334V7.50024H17.5V10.0002Z" fill="#81A8C7"/>
</svg>
