<svg width="148" height="148" viewBox="0 0 148 148" fill="none" xmlns="http://www.w3.org/2000/svg">
<circle cx="74.1154" cy="72.1154" r="32.1154" fill="#81A8C7"/>
<path d="M67.6924 88.173H61.2693C60.4175 88.173 59.6007 87.8346 58.9984 87.2324C58.3961 86.6301 58.0577 85.8132 58.0577 84.9615V78.5384C58.0577 78.1125 58.2269 77.7041 58.5281 77.4029C58.8292 77.1018 59.2376 76.9326 59.6635 76.9326C60.0894 76.9326 60.4978 77.1018 60.799 77.4029C61.1001 77.7041 61.2693 78.1125 61.2693 78.5384V84.9615H67.6924C68.1182 84.9615 68.5267 85.1306 68.8278 85.4318C69.1289 85.7329 69.2981 86.1414 69.2981 86.5672C69.2981 86.9931 69.1289 87.4015 68.8278 87.7027C68.5267 88.0038 68.1182 88.173 67.6924 88.173Z" fill="white"/>
<path d="M86.9616 88.173H80.5385C80.1126 88.173 79.7042 88.0038 79.4031 87.7027C79.1019 87.4015 78.9327 86.9931 78.9327 86.5672C78.9327 86.1414 79.1019 85.7329 79.4031 85.4318C79.7042 85.1306 80.1126 84.9615 80.5385 84.9615H86.9616V78.5384C86.9616 78.1125 87.1308 77.7041 87.4319 77.4029C87.733 77.1018 88.1415 76.9326 88.5674 76.9326C88.9932 76.9326 89.4017 77.1018 89.7028 77.4029C90.0039 77.7041 90.1731 78.1125 90.1731 78.5384V84.9615C90.1731 85.8132 89.8348 86.6301 89.2325 87.2324C88.6302 87.8346 87.8133 88.173 86.9616 88.173Z" fill="white"/>
<path d="M67.6924 88.173H61.2693C60.4175 88.173 59.6007 87.8346 58.9984 87.2324C58.3961 86.6301 58.0577 85.8132 58.0577 84.9615V78.5384C58.0577 78.1125 58.2269 77.7041 58.5281 77.4029C58.8292 77.1018 59.2376 76.9326 59.6635 76.9326C60.0894 76.9326 60.4978 77.1018 60.799 77.4029C61.1001 77.7041 61.2693 78.1125 61.2693 78.5384V84.9615H67.6924C68.1182 84.9615 68.5267 85.1306 68.8278 85.4318C69.1289 85.7329 69.2981 86.1414 69.2981 86.5672C69.2981 86.9931 69.1289 87.4015 68.8278 87.7027C68.5267 88.0038 68.1182 88.173 67.6924 88.173Z" fill="white"/>
<path d="M59.6635 67.298C59.2376 67.298 58.8292 67.1288 58.5281 66.8277C58.2269 66.5265 58.0577 66.1181 58.0577 65.6922V59.2692C58.0577 58.4174 58.3961 57.6005 58.9984 56.9983C59.6007 56.396 60.4175 56.0576 61.2693 56.0576H67.6924C68.1182 56.0576 68.5267 56.2268 68.8278 56.5279C69.1289 56.8291 69.2981 57.2375 69.2981 57.6634C69.2981 58.0893 69.1289 58.4977 68.8278 58.7988C68.5267 59.1 68.1182 59.2692 67.6924 59.2692H61.2693V65.6922C61.2693 66.1181 61.1001 66.5265 60.799 66.8277C60.4978 67.1288 60.0894 67.298 59.6635 67.298Z" fill="white"/>
<path d="M88.5674 67.298C88.1415 67.298 87.733 67.1288 87.4319 66.8277C87.1308 66.5265 86.9616 66.1181 86.9616 65.6922V59.2692H80.5385C80.1126 59.2692 79.7042 59.1 79.4031 58.7988C79.1019 58.4977 78.9327 58.0893 78.9327 57.6634C78.9327 57.2375 79.1019 56.8291 79.4031 56.5279C79.7042 56.2268 80.1126 56.0576 80.5385 56.0576H86.9616C87.8133 56.0576 88.6302 56.396 89.2325 56.9983C89.8348 57.6005 90.1731 58.4174 90.1731 59.2692V65.6922C90.1731 66.1181 90.0039 66.5265 89.7028 66.8277C89.4017 67.1288 88.9932 67.298 88.5674 67.298Z" fill="white"/>
<path d="M74.1153 80.1436C73.6894 80.1436 73.281 79.9744 72.9798 79.6733C72.6787 79.3722 72.5095 78.9637 72.5095 78.5379V65.6917C72.5095 65.2658 72.6787 64.8574 72.9798 64.5563C73.281 64.2551 73.6894 64.0859 74.1153 64.0859C74.5412 64.0859 74.9496 64.2551 75.2507 64.5563C75.5519 64.8574 75.7211 65.2658 75.7211 65.6917V78.5379C75.7211 78.9637 75.5519 79.3722 75.2507 79.6733C74.9496 79.9744 74.5412 80.1436 74.1153 80.1436Z" fill="white"/>
<path d="M67.6923 76.9325C67.2664 76.9325 66.858 76.7633 66.5569 76.4621C66.2557 76.161 66.0865 75.7526 66.0865 75.3267V68.9036C66.0865 68.4777 66.2557 68.0693 66.5569 67.7682C66.858 67.467 67.2664 67.2979 67.6923 67.2979C68.1182 67.2979 68.5266 67.467 68.8278 67.7682C69.1289 68.0693 69.2981 68.4777 69.2981 68.9036V75.3267C69.2981 75.7526 69.1289 76.161 68.8278 76.4621C68.5266 76.7633 68.1182 76.9325 67.6923 76.9325Z" fill="white"/>
<path d="M80.5385 76.9325C80.1126 76.9325 79.7042 76.7633 79.4031 76.4621C79.1019 76.161 78.9327 75.7526 78.9327 75.3267V68.9036C78.9327 68.4777 79.1019 68.0693 79.4031 67.7682C79.7042 67.467 80.1126 67.2979 80.5385 67.2979C80.9644 67.2979 81.3728 67.467 81.674 67.7682C81.9751 68.0693 82.1443 68.4777 82.1443 68.9036V75.3267C82.1443 75.7526 81.9751 76.161 81.674 76.4621C81.3728 76.7633 80.9644 76.9325 80.5385 76.9325Z" fill="white"/>
<path d="M3.08333 43.1667C4.78533 43.1667 6.16667 41.7853 6.16667 40.0833V27.75C6.16667 15.8483 15.8483 6.16667 27.75 6.16667H40.0833C41.7853 6.16667 43.1667 4.78533 43.1667 3.08333C43.1667 1.38133 41.7853 0 40.0833 0H27.75C12.4505 0 0 12.4505 0 27.75V40.0833C0 41.7853 1.38133 43.1667 3.08333 43.1667ZM40.0833 141.833H27.75C15.8483 141.833 6.16667 132.152 6.16667 120.25V107.917C6.16667 106.215 4.78533 104.833 3.08333 104.833C1.38133 104.833 0 106.215 0 107.917V120.25C0 135.549 12.4505 148 27.75 148H40.0833C41.7853 148 43.1667 146.619 43.1667 144.917C43.1667 143.215 41.7853 141.833 40.0833 141.833ZM144.917 104.833C143.215 104.833 141.833 106.215 141.833 107.917V120.25C141.833 132.152 132.152 141.833 120.25 141.833H107.917C106.215 141.833 104.833 143.215 104.833 144.917C104.833 146.619 106.215 148 107.917 148H120.25C135.55 148 148 135.549 148 120.25V107.917C148 106.215 146.619 104.833 144.917 104.833ZM107.917 6.16667H120.25C132.152 6.16667 141.833 15.8483 141.833 27.75V40.0833C141.833 41.7853 143.215 43.1667 144.917 43.1667C146.619 43.1667 148 41.7853 148 40.0833V27.75C148 12.4505 135.55 0 120.25 0H107.917C106.215 0 104.833 1.38133 104.833 3.08333C104.833 4.78533 106.215 6.16667 107.917 6.16667Z" fill="black"/>
</svg>
