<svg width="24" height="24" viewBox="0 0 24 24" fill="none" xmlns="http://www.w3.org/2000/svg">
<path d="M16.9978 1.95312C15.3408 1.95312 13.9978 3.29613 13.9978 4.95312C13.9978 5.21012 14.0388 5.53013 14.0998 5.76813L8.7468 9.50412C8.2678 9.18012 7.6188 8.95312 6.9978 8.95312C5.3408 8.95312 3.9978 10.2961 3.9978 11.9531C3.9978 13.6101 5.3408 14.9531 6.9978 14.9531C7.6298 14.9531 8.25379 14.7181 8.73779 14.3851L14.1018 18.1511C14.0358 18.3981 13.9978 18.6851 13.9978 18.9531C13.9978 20.6101 15.3408 21.9531 16.9978 21.9531C18.6548 21.9531 19.9978 20.6101 19.9978 18.9531C19.9978 17.2961 18.6548 15.9531 16.9978 15.9531C16.3658 15.9531 15.7498 16.1811 15.2668 16.5151L9.88879 12.7521C9.95379 12.5051 9.9978 12.2211 9.9978 11.9531C9.9978 11.6851 9.9598 11.3961 9.8938 11.1491L15.2588 7.39713C15.7378 7.72013 16.3768 7.95312 16.9978 7.95312C18.6548 7.95312 19.9978 6.61013 19.9978 4.95312C19.9978 3.29613 18.6548 1.95312 16.9978 1.95312ZM16.9978 3.95312C17.5498 3.95312 17.9978 4.40112 17.9978 4.95312C17.9978 5.50513 17.5498 5.95312 16.9978 5.95312C16.4458 5.95312 15.9978 5.50513 15.9978 4.95312C15.9978 4.40112 16.4458 3.95312 16.9978 3.95312ZM6.9978 10.9531C7.5498 10.9531 7.9978 11.4011 7.9978 11.9531C7.9978 12.5051 7.5498 12.9531 6.9978 12.9531C6.4458 12.9531 5.9978 12.5051 5.9978 11.9531C5.9978 11.4011 6.4458 10.9531 6.9978 10.9531ZM16.9978 17.9531C17.5498 17.9531 17.9978 18.4011 17.9978 18.9531C17.9978 19.5051 17.5498 19.9531 16.9978 19.9531C16.4458 19.9531 15.9978 19.5051 15.9978 18.9531C15.9978 18.4011 16.4458 17.9531 16.9978 17.9531Z" fill="#2A343D"/>
</svg>
