<svg width="50" height="50" viewBox="0 0 50 50" fill="none" xmlns="http://www.w3.org/2000/svg">
<rect width="50" height="50" rx="25" fill="#ECFFF5"/>
<path d="M12.5001 36.5L14.2938 29.8365C12.8472 27.2408 12.3877 24.2118 12.9994 21.3053C13.6111 18.3988 15.2531 15.8099 17.6241 14.0135C19.9951 12.2172 22.936 11.3339 25.9072 11.5258C28.8783 11.7177 31.6805 12.9719 33.7994 15.0583C35.9183 17.1446 37.2119 19.9232 37.4427 22.8841C37.6735 25.8449 36.8261 28.7896 35.056 31.1776C33.2859 33.5655 30.7118 35.2367 27.8061 35.8845C24.9004 36.5322 21.8579 36.113 19.2371 34.7038L12.5001 36.5ZM19.5619 32.2103L19.9786 32.4568C21.8769 33.5792 24.0942 34.0436 26.2848 33.7778C28.4754 33.512 30.5163 32.5308 32.0895 30.9872C33.6627 29.4436 34.6798 27.4243 34.9823 25.2439C35.2847 23.0635 34.8556 20.8446 33.7618 18.9328C32.6679 17.0211 30.9708 15.524 28.9349 14.6748C26.8989 13.8256 24.6386 13.6721 22.506 14.2381C20.3734 14.804 18.4885 16.0578 17.1448 17.8039C15.8012 19.55 15.0744 21.6904 15.0777 23.8916C15.0759 25.7167 15.5819 27.5065 16.5395 29.0617L16.8007 29.4914L15.798 33.2105L19.5619 32.2103Z" fill="#00D95F"/>
<path fill-rule="evenodd" clip-rule="evenodd" d="M29.6742 25.603C29.4299 25.4065 29.1439 25.2681 28.838 25.1986C28.5321 25.129 28.2142 25.13 27.9087 25.2015C27.4497 25.3916 27.1531 26.1101 26.8565 26.4693C26.794 26.5555 26.7021 26.6159 26.5981 26.6392C26.4941 26.6625 26.3851 26.6472 26.2916 26.5961C24.6111 25.9396 23.2025 24.7357 22.2946 23.1799C22.2172 23.0828 22.1805 22.9595 22.1924 22.836C22.2042 22.7125 22.2637 22.5984 22.3582 22.5178C22.689 22.1911 22.9319 21.7865 23.0643 21.3414C23.0938 20.8505 22.981 20.3615 22.7395 19.9327C22.5528 19.3315 22.1975 18.7962 21.7155 18.3901C21.467 18.2786 21.1914 18.2412 20.922 18.2824C20.6525 18.3237 20.4009 18.4418 20.1973 18.6225C19.8438 18.9267 19.5632 19.3061 19.3763 19.7328C19.1893 20.1594 19.1006 20.6225 19.1168 21.0879C19.1179 21.3492 19.1511 21.6094 19.2157 21.8627C19.3797 22.4712 19.6318 23.0526 19.9642 23.5884C20.204 23.9989 20.4657 24.3962 20.7481 24.7788C21.6658 26.0354 22.8194 27.1024 24.1448 27.9204C24.8099 28.3361 25.5208 28.674 26.2633 28.9276C27.0347 29.2764 27.8864 29.4103 28.7279 29.315C29.2074 29.2427 29.6616 29.0538 30.0508 28.7652C30.4399 28.4765 30.7519 28.0969 30.9594 27.6597C31.0813 27.3956 31.1183 27.1004 31.0653 26.8145C30.9382 26.2298 30.1544 25.8847 29.6742 25.603Z" fill="#00D95F"/>
</svg>
